<svg width="5" height="15" viewBox="0 0 5 15" fill="none" xmlns="http://www.w3.org/2000/svg">
<path d="M3.39715 3.96781C4.36306 3.87222 5.07797 2.908 4.99293 1.81455C4.90906 0.721078 4.05735 -0.0879248 3.09144 0.00767078C2.12552 0.103296 1.41061 1.06716 1.49505 2.16064C1.57955 3.25479 2.43126 4.06344 3.39715 3.96781Z" fill="#343AC3"/>
<path d="M3.93127 11.9048C3.51374 12.0779 2.81014 12.5654 2.81014 12.5654C2.81014 12.5654 3.34364 9.77347 3.36566 9.65192C3.59107 8.42646 4.23165 6.69704 3.36387 5.64567C2.75959 4.91512 1.98281 5.11173 1.29822 5.85306C0.846193 6.3422 0.606501 6.65497 0.187802 7.18085C0.0182937 7.39393 -0.0459386 7.59291 0.0343386 7.90498C0.120568 8.24233 0.469108 8.40965 0.7772 8.28206C1.19473 8.10936 1.89777 7.62188 1.89777 7.62188C1.89777 7.62188 1.57182 9.32101 1.40945 10.1707C1.38683 10.2919 0.476251 13.4898 1.34463 14.5412C1.9489 15.2721 2.7251 15.0752 3.41027 14.3342C3.86231 13.845 4.102 13.5323 4.5207 13.0061C4.69021 12.7933 4.75384 12.5943 4.67416 12.2823C4.58731 11.9452 4.23936 11.7776 3.93127 11.9048Z" fill="#343AC3"/>
</svg>
