<svg width="8" height="20" viewBox="0 0 8 20" fill="none" xmlns="http://www.w3.org/2000/svg">
<path d="M5.12737 5.29041C6.58533 5.16295 7.66443 3.87733 7.53608 2.4194C7.40947 0.961437 6.12389 -0.117233 4.66592 0.0102277C3.20796 0.137727 2.12886 1.42288 2.25632 2.88085C2.38386 4.33971 3.66944 5.41791 5.12737 5.29041Z" fill="#01162B"/>
<path d="M5.93393 15.8732C5.3037 16.1039 4.24167 16.7539 4.24167 16.7539C4.24167 16.7539 5.04694 13.0314 5.08018 12.8693C5.42042 11.2354 6.38733 8.92947 5.07749 7.52764C4.16538 6.55357 2.99288 6.81572 1.95956 7.80416C1.27726 8.45634 0.915463 8.87338 0.283472 9.57455C0.0276128 9.85865 -0.0693405 10.124 0.0518312 10.5401C0.181987 10.9899 0.70808 11.2129 1.17312 11.0428C1.80335 10.8126 2.86452 10.1626 2.86452 10.1626C2.86452 10.1626 2.37253 12.4281 2.12745 13.561C2.09331 13.7226 0.718861 17.9865 2.0296 19.3884C2.94171 20.3629 4.11331 20.1003 5.14753 19.1123C5.82983 18.4601 6.19163 18.0431 6.82362 17.3415C7.07948 17.0578 7.17553 16.7925 7.05526 16.3764C6.92416 15.9271 6.39897 15.7035 5.93393 15.8732Z" fill="#01162B"/>
</svg>
