<svg width="19" height="18" viewBox="0 0 19 18" fill="none" xmlns="http://www.w3.org/2000/svg">
<path d="M7.6872 14.3333H11.3127M5.14937 1H13.8506C14.8658 1 15.3735 1 15.7612 1.19377C16.1023 1.3642 16.3796 1.63617 16.5534 1.97068C16.751 2.35097 16.751 2.8488 16.751 3.84444V8.82222C16.751 9.81787 16.751 10.3157 16.5534 10.696C16.3796 11.0305 16.1023 11.3025 15.7612 11.4729C15.3735 11.6667 14.8658 11.6667 13.8506 11.6667H5.14937C4.13412 11.6667 3.62651 11.6667 3.23874 11.4729C2.89764 11.3025 2.62032 11.0305 2.44653 10.696C2.24895 10.3157 2.24895 9.81787 2.24895 8.82222V3.84444C2.24895 2.8488 2.24895 2.35097 2.44653 1.97068C2.62032 1.63617 2.89764 1.3642 3.23874 1.19377C3.62651 1 4.13412 1 5.14937 1ZM2.78268 17H16.2173C16.9943 17 17.3827 17 17.6167 16.8396C17.821 16.6994 17.9575 16.4829 17.9939 16.2411C18.0356 15.964 17.8619 15.6233 17.5144 14.9418L17.0471 14.0252C16.6106 13.1691 16.3923 12.741 16.0668 12.4282C15.7788 12.1516 15.4318 11.9413 15.0507 11.8124C14.6199 11.6667 14.1318 11.6667 13.1558 11.6667H5.84416C4.86811 11.6667 4.38008 11.6667 3.94922 11.8124C3.5682 11.9413 3.22116 12.1516 2.93322 12.4282C2.60761 12.741 2.38935 13.1691 1.95285 14.0252L1.48557 14.9418C1.1381 15.6233 0.96437 15.964 1.0061 16.2411C1.04254 16.4829 1.17896 16.6994 1.38326 16.8396C1.61724 17 2.00571 17 2.78268 17Z" stroke="#C33481" stroke-width="2" stroke-linecap="round" stroke-linejoin="round"/>
</svg>
