<svg width="27" height="22" viewBox="0 0 27 22" fill="none" xmlns="http://www.w3.org/2000/svg">
<path d="M13.4999 8.5V13.5M11.3344 9.75L15.6645 12.25M15.6641 9.75L11.334 12.25" stroke="#01162B" stroke-width="2" stroke-linecap="round"/>
<path d="M6.91581 8.5V13.5M4.75029 9.75L9.08041 12.25M9.08012 9.75L4.75 12.25" stroke="#01162B" stroke-width="2" stroke-linecap="round"/>
<path d="M20.0838 8.5V13.5M17.9182 9.75L22.2483 12.25M22.2481 9.75L17.918 12.25" stroke="#01162B" stroke-width="2" stroke-linecap="round"/>
<path d="M26 11C26 15.714 26 18.0711 24.5355 19.5355C23.0711 21 20.714 21 16 21H11C6.28595 21 3.92894 21 2.46446 19.5355C1 18.0711 1 15.714 1 11C1 6.28595 1 3.92894 2.46446 2.46446C3.92894 1 6.28595 1 11 1H16C20.714 1 23.0711 1 24.5355 2.46446C25.352 3.28094 25.7133 4.37486 25.8731 6" stroke="#01162B" stroke-width="2" stroke-linecap="round"/>
</svg>
