<svg width="20" height="20" viewBox="0 0 20 20" fill="none" xmlns="http://www.w3.org/2000/svg">
<path d="M0.252402 7.14576C1.46065 11.946 8.05828 18.5481 12.8576 19.7509C13.5055 19.9151 14.1712 19.9988 14.8396 20C16.1097 19.9994 17.3602 19.6872 18.4816 19.0909C18.8745 18.8856 19.2136 18.5909 19.4716 18.2305C19.7297 17.8701 19.8993 17.454 19.9669 17.0159C20.0345 16.5778 19.9982 16.13 19.8608 15.7086C19.7235 15.2871 19.4889 14.9039 19.1762 14.5897L17.2797 12.6933C16.8777 12.2914 16.3639 12.02 15.8054 11.9145C15.2469 11.8089 14.6696 11.8741 14.1486 12.1014C13.6516 12.3161 13.1983 12.6202 12.8113 12.9988C12.6494 13.1597 12.3512 13.1851 11.923 13.0688C10.8004 12.6125 9.7806 11.9361 8.92367 11.0793C8.06675 10.2226 7.39011 9.20285 6.93368 8.08035C6.81912 7.65214 6.84276 7.35304 7.00459 7.19212C7.38354 6.80456 7.68802 6.35063 7.90282 5.85297C8.12969 5.33224 8.19456 4.75528 8.089 4.19717C7.98345 3.63906 7.71234 3.12564 7.31097 2.72373L5.4145 0.828186C5.10398 0.513858 4.72316 0.27788 4.30347 0.139723C3.88378 0.0015659 3.43725 -0.0348081 3.00073 0.0336025C2.55927 0.0984334 2.1395 0.267157 1.77598 0.52589C1.41245 0.784624 1.11555 1.12597 0.90971 1.52185C-0.0060657 3.24799 -0.240636 5.25496 0.252402 7.14576ZM2.52162 2.36553C2.59583 2.22347 2.70266 2.10104 2.83336 2.00827C2.96406 1.91551 3.11489 1.85505 3.27348 1.83187C3.32369 1.82387 3.37446 1.81992 3.4253 1.82005C3.55619 1.82001 3.68578 1.84594 3.80657 1.89635C3.92736 1.94675 4.03695 2.02063 4.12898 2.1137L6.02453 4.00924C6.16709 4.15012 6.26402 4.33058 6.30276 4.52722C6.34151 4.72386 6.32028 4.9276 6.24182 5.11202C6.11766 5.408 5.94051 5.67882 5.71906 5.91115C5.39388 6.2576 5.17149 6.68767 5.07676 7.15329C4.98203 7.6189 5.0187 8.10168 5.18267 8.54764C5.83907 11.0023 9.00561 14.1652 11.4557 14.8207C11.9034 14.9843 12.3879 15.02 12.8547 14.9236C13.3216 14.8273 13.7523 14.6027 14.0986 14.2752C14.3296 14.054 14.5988 13.8765 14.8932 13.7515C15.0777 13.6729 15.2817 13.6515 15.4785 13.6903C15.6753 13.729 15.8559 13.8261 15.9969 13.9688L17.8925 15.8644C18.0039 15.9746 18.0875 16.1097 18.1365 16.2586C18.1855 16.4075 18.1985 16.5659 18.1743 16.7208C18.1507 16.8796 18.0896 17.0305 17.9962 17.161C17.9028 17.2916 17.7797 17.3981 17.637 17.4717C16.3095 18.1851 14.7601 18.3659 13.304 17.9772C9.17289 16.9489 3.05528 10.8314 2.01523 6.7021C1.62705 5.24473 1.8081 3.69425 2.52162 2.36553Z" fill="#01162B"/>
</svg>
