<svg width="16" height="16" viewBox="0 0 16 16" fill="none" xmlns="http://www.w3.org/2000/svg">
<path d="M0.201922 5.71661C1.16852 9.55679 6.44663 14.8385 10.2861 15.8007C10.8044 15.9321 11.337 15.999 11.8716 16C12.8877 15.9995 13.8882 15.7498 14.7853 15.2727C15.0996 15.1085 15.3709 14.8727 15.5773 14.5844C15.7837 14.296 15.9195 13.9632 15.9735 13.6127C16.0276 13.2623 15.9985 12.904 15.8887 12.5668C15.7788 12.2297 15.5911 11.9231 15.3409 11.6718L13.8238 10.1546C13.5022 9.83315 13.0912 9.61603 12.6443 9.53157C12.1975 9.44711 11.7356 9.49924 11.3189 9.68116C10.9213 9.85286 10.5586 10.0962 10.249 10.399C10.1196 10.5277 9.88099 10.5481 9.53843 10.455C8.64035 10.09 7.82448 9.54887 7.13894 8.86346C6.4534 8.17805 5.91209 7.36228 5.54694 6.46428C5.4553 6.12171 5.47421 5.88243 5.60367 5.7537C5.90683 5.44365 6.15041 5.08051 6.32226 4.68237C6.50375 4.26579 6.55565 3.80422 6.4712 3.35773C6.38676 2.91124 6.16987 2.50051 5.84878 2.17898L4.3316 0.662548C4.08318 0.411087 3.77853 0.222304 3.44277 0.111778C3.10702 0.00125272 2.7498 -0.0278465 2.40059 0.026882C2.04741 0.0787468 1.7116 0.213725 1.42078 0.420712C1.12996 0.627699 0.892443 0.900779 0.727768 1.21748C-0.00485256 2.59839 -0.192509 4.20397 0.201922 5.71661ZM2.01729 1.89242C2.07666 1.77878 2.16213 1.68083 2.26669 1.60662C2.37125 1.5324 2.49191 1.48404 2.61878 1.4655C2.65895 1.4591 2.69957 1.45593 2.74024 1.45604C2.84495 1.45601 2.94863 1.47675 3.04526 1.51708C3.14189 1.5574 3.22956 1.61651 3.30318 1.69096L4.81963 3.2074C4.93367 3.3201 5.01122 3.46447 5.04221 3.62178C5.07321 3.77909 5.05622 3.94208 4.99346 4.08962C4.89413 4.3264 4.7524 4.54305 4.57525 4.72892C4.3151 5.00608 4.13719 5.35014 4.06141 5.72263C3.98562 6.09512 4.01496 6.48134 4.14614 6.83811C4.67126 8.80184 7.20449 11.3321 9.16459 11.8565C9.52275 11.9875 9.91031 12.016 10.2838 11.9389C10.6572 11.8618 11.0018 11.6822 11.2789 11.4201C11.4637 11.2432 11.6791 11.1012 11.9146 11.0012C12.0622 10.9383 12.2253 10.9212 12.3828 10.9522C12.5403 10.9832 12.6848 11.0609 12.7975 11.175L14.314 12.6915C14.4031 12.7797 14.47 12.8878 14.5092 13.0069C14.5484 13.126 14.5588 13.2527 14.5394 13.3766C14.5205 13.5036 14.4717 13.6244 14.397 13.7288C14.3222 13.8333 14.2237 13.9185 14.1096 13.9774C13.0476 14.5481 11.8081 14.6927 10.6432 14.3817C7.33831 13.5592 2.44423 8.66511 1.61218 5.36168C1.30164 4.19578 1.44648 2.9554 2.01729 1.89242Z" fill="#34C38F"/>
</svg>
