<svg width="21" height="17" viewBox="0 0 21 17" fill="none" xmlns="http://www.w3.org/2000/svg">
<path d="M10.3744 6.625V10.375M8.75028 7.5625L11.9979 9.4375M11.9976 7.5625L8.75 9.4375" stroke="#EE7E8B" stroke-width="1.5" stroke-linecap="round"/>
<path d="M5.43686 6.625V10.375M3.81272 7.5625L7.06031 9.4375M7.06009 7.5625L3.8125 9.4375" stroke="#EE7E8B" stroke-width="1.5" stroke-linecap="round"/>
<path d="M15.3139 6.625V10.375M13.6896 7.5625L16.9372 9.4375M16.937 7.5625L13.6895 9.4375" stroke="#EE7E8B" stroke-width="1.5" stroke-linecap="round"/>
<path d="M19.75 8.5C19.75 12.0355 19.75 13.8033 18.6516 14.9016C17.5533 16 15.7855 16 12.25 16H8.5C4.96446 16 3.1967 16 2.09835 14.9016C1 13.8033 1 12.0355 1 8.5C1 4.96446 1 3.1967 2.09835 2.09835C3.1967 1 4.96446 1 8.5 1H12.25C15.7855 1 17.5533 1 18.6516 2.09835C19.264 2.7107 19.5349 3.53115 19.6548 4.75" stroke="#EE7E8B" stroke-width="1.5" stroke-linecap="round"/>
</svg>
