<svg width="15" height="16" viewBox="0 0 15 16" fill="none" xmlns="http://www.w3.org/2000/svg">
<path d="M6.97886 14.8394C7.14567 14.9235 7.22911 14.9655 7.34481 14.9873C7.435 15.0042 7.565 15.0042 7.65519 14.9873C7.77089 14.9655 7.85433 14.9235 8.02114 14.8394C9.56375 14.0622 14 11.5224 14 8.01751V5.04585C14 4.41769 14 4.10362 13.8937 3.83365C13.7999 3.59515 13.6474 3.38234 13.4494 3.21362C13.2253 3.02263 12.9212 2.91236 12.3129 2.6918L7.95646 1.11209C7.78754 1.05084 7.70312 1.02022 7.61619 1.00807C7.53916 0.997309 7.46084 0.997309 7.38381 1.00807C7.29688 1.02022 7.21246 1.05084 7.04354 1.11209L2.68707 2.6918C2.07884 2.91236 1.77472 3.02263 1.5506 3.21362C1.35261 3.38234 1.20009 3.59515 1.10624 3.83365C1 4.10362 1 4.41769 1 5.04585V8.01751C1 11.5224 5.43622 14.0622 6.97886 14.8394Z" stroke="#34C3C3" stroke-linecap="round" stroke-linejoin="round"/>
</svg>
