<svg width="37" height="30" viewBox="0 0 37 30" fill="none" xmlns="http://www.w3.org/2000/svg">
<g id="Like, comment" filter="url(#filter0_d_174_13014)">
<path id="Vector" d="M9.44444 1V21M9.44444 1L13.8889 5.44444M9.44444 1L5 5.44444" stroke="#01162B" stroke-width="2" stroke-linecap="round" stroke-linejoin="round"/>
<path id="Vector_2" fill-rule="evenodd" clip-rule="evenodd" d="M27.3727 2.14248C27.7241 1.08845 26.9396 0 25.8285 0C25.3028 0 24.8094 0.25387 24.5039 0.681634L21.8329 4.42105H19.6316L19 5.05263V11.3684L19.6316 12H28.8641L30.804 8.12025C31.3801 6.96817 31.1542 5.57676 30.2435 4.66594C29.6822 4.10475 28.9211 3.78947 28.1274 3.78947H26.8237L27.3727 2.14248ZM22.7895 5.25507L25.5318 1.41583C25.6003 1.32003 25.7108 1.26316 25.8285 1.26316C26.0773 1.26316 26.2531 1.50696 26.1743 1.74302L25.0712 5.05263H28.1274C28.5861 5.05263 29.026 5.23486 29.3502 5.55916C29.8766 6.08547 30.0071 6.8896 29.6742 7.55537L28.0835 10.7368H22.7895V5.25507ZM21.5263 10.7368H20.2632V5.68421H21.5263V10.7368Z" fill="#01162B"/>
<g id="Group 520">
<path id="Line 90" d="M20 15H29" stroke="#01162B" stroke-width="1.5" stroke-linecap="round"/>
<path id="Line 91" d="M20 18H32" stroke="#01162B" stroke-width="1.5" stroke-linecap="round"/>
<path id="Line 92" d="M20 21H31" stroke="#01162B" stroke-width="1.5" stroke-linecap="round"/>
</g>
</g>
<defs>
<filter id="filter0_d_174_13014" x="0" y="0" width="36.75" height="30" filterUnits="userSpaceOnUse" color-interpolation-filters="sRGB">
<feFlood flood-opacity="0" result="BackgroundImageFix"/>
<feColorMatrix in="SourceAlpha" type="matrix" values="0 0 0 0 0 0 0 0 0 0 0 0 0 0 0 0 0 0 127 0" result="hardAlpha"/>
<feOffset dy="4"/>
<feGaussianBlur stdDeviation="2"/>
<feComposite in2="hardAlpha" operator="out"/>
<feColorMatrix type="matrix" values="0 0 0 0 0 0 0 0 0 0 0 0 0 0 0 0 0 0 0.25 0"/>
<feBlend mode="normal" in2="BackgroundImageFix" result="effect1_dropShadow_174_13014"/>
<feBlend mode="normal" in="SourceGraphic" in2="effect1_dropShadow_174_13014" result="shape"/>
</filter>
</defs>
</svg>
