<svg width="23" height="22" viewBox="0 0 23 22" fill="none" xmlns="http://www.w3.org/2000/svg">
<path d="M9.1977 17.6667H13.6421M6.08662 1H16.7533C17.9978 1 18.6201 1 19.0955 1.24221C19.5136 1.45526 19.8536 1.79521 20.0666 2.21336C20.3088 2.68871 20.3088 3.311 20.3088 4.55556V10.7778C20.3088 12.0223 20.3088 12.6447 20.0666 13.12C19.8536 13.5381 19.5136 13.8781 19.0955 14.0911C18.6201 14.3333 17.9978 14.3333 16.7533 14.3333H6.08662C4.84206 14.3333 4.21978 14.3333 3.74442 14.0911C3.32628 13.8781 2.98632 13.5381 2.77327 13.12C2.53107 12.6447 2.53107 12.0223 2.53107 10.7778V4.55556C2.53107 3.311 2.53107 2.68871 2.77327 2.21336C2.98632 1.79521 3.32628 1.45526 3.74442 1.24221C4.21978 1 4.84206 1 6.08662 1ZM3.18534 21H19.6546C20.607 21 21.0833 21 21.37 20.7994C21.6205 20.6242 21.7878 20.3537 21.8325 20.0513C21.8836 19.705 21.6706 19.2791 21.2447 18.4272L20.6718 17.2816C20.1367 16.2113 19.8691 15.6762 19.47 15.2852C19.117 14.9396 18.6916 14.6767 18.2245 14.5156C17.6964 14.3333 17.098 14.3333 15.9016 14.3333H6.93836C5.74183 14.3333 5.14357 14.3333 4.61539 14.5156C4.1483 14.6767 3.72288 14.9396 3.36989 15.2852C2.97073 15.6762 2.70318 16.2113 2.16808 17.2816L1.59526 18.4272C1.1693 19.2791 0.956322 19.705 1.00748 20.0513C1.05214 20.3537 1.21939 20.6242 1.46983 20.7994C1.75666 21 2.23288 21 3.18534 21Z" stroke="#01162B" stroke-width="2" stroke-linecap="round" stroke-linejoin="round"/>
</svg>
