<svg width="19" height="16" viewBox="0 0 19 16" fill="none" xmlns="http://www.w3.org/2000/svg">
<path d="M6.95 7.125C7.88888 7.125 8.65 6.3415 8.65 5.375C8.65 4.4085 7.88888 3.625 6.95 3.625C6.01112 3.625 5.25 4.4085 5.25 5.375C5.25 6.3415 6.01112 7.125 6.95 7.125Z" stroke="#A6C334" stroke-width="2"/>
<path d="M10.3508 10.625C10.3508 11.5915 10.3508 12.375 6.95078 12.375C3.55078 12.375 3.55078 11.5915 3.55078 10.625C3.55078 9.65848 5.07301 8.875 6.95078 8.875C8.82852 8.875 10.3508 9.65848 10.3508 10.625Z" stroke="#A6C334" stroke-width="2"/>
<path d="M1 8C1 4.70017 1 3.05026 1.99583 2.02512C2.99168 1 4.59445 1 7.8 1H11.2C14.4055 1 16.0084 1 17.0041 2.02512C18 3.05026 18 4.70017 18 8C18 11.2998 18 12.9498 17.0041 13.9748C16.0084 15 14.4055 15 11.2 15H7.8C4.59445 15 2.99168 15 1.99583 13.9748C1 12.9498 1 11.2998 1 8Z" stroke="#A6C334" stroke-width="2"/>
<path d="M15.4508 8H12.0508" stroke="#A6C334" stroke-width="2" stroke-linecap="round"/>
<path d="M15.4492 5.375H11.1992" stroke="#A6C334" stroke-width="2" stroke-linecap="round"/>
<path d="M15.4504 10.625H12.9004" stroke="#A6C334" stroke-width="2" stroke-linecap="round"/>
</svg>
