<?xml version="1.0" encoding="UTF-8"?>
<!DOCTYPE svg PUBLIC "-//W3C//DTD SVG 1.1//EN" "http://www.w3.org/Graphics/SVG/1.1/DTD/svg11.dtd">
<svg xmlns="http://www.w3.org/2000/svg" version="1.1" width="512px" height="880px" style="shape-rendering:geometricPrecision; text-rendering:geometricPrecision; image-rendering:optimizeQuality; fill-rule:evenodd; clip-rule:evenodd" xmlns:xlink="http://www.w3.org/1999/xlink">
<g><path style="opacity:0.998" fill="#fbb837" d="M 11.5,19.5 C 25.7648,37.7711 40.4315,55.7711 55.5,73.5C 54.9569,73.56 54.6236,73.8933 54.5,74.5C 67.0005,95.8516 80.1672,116.852 94,137.5C 121.249,178.329 148.249,219.329 175,260.5C 176.667,261.833 178.333,263.167 180,264.5C 181.812,268.508 184.312,271.841 187.5,274.5C 184.596,280.738 181.262,286.738 177.5,292.5C 176.504,292.586 175.671,292.252 175,291.5C 126.333,217.5 77.6667,143.5 29,69.5C 28.6174,70.056 28.1174,70.3893 27.5,70.5C 21.9586,54.4127 16.1253,38.4127 10,22.5C 9.33333,21.1667 9.33333,19.8333 10,18.5C 10.3826,19.056 10.8826,19.3893 11.5,19.5 Z"/></g>
<g><path style="opacity:0.991" fill="#fce624" d="M 11.5,19.5 C 41.196,36.01 70.5294,53.01 99.5,70.5C 97.8378,87.3088 96.8378,104.309 96.5,121.5C 82.8333,105.5 69.1667,89.5 55.5,73.5C 40.4315,55.7711 25.7648,37.7711 11.5,19.5 Z"/></g>
<g><path style="opacity:0.996" fill="#fbbe34" d="M 177.5,292.5 C 174.086,298.997 170.419,305.33 166.5,311.5C 129.47,256.614 92.9701,201.28 57,145.5C 56.2303,144.402 55.397,144.402 54.5,145.5C 45.7757,120.388 36.7757,95.3879 27.5,70.5C 28.1174,70.3893 28.6174,70.056 29,69.5C 77.6667,143.5 126.333,217.5 175,291.5C 175.671,292.252 176.504,292.586 177.5,292.5 Z"/></g>
<g><path style="opacity:1" fill="#fbb339" d="M 55.5,73.5 C 69.1667,89.5 82.8333,105.5 96.5,121.5C 118.939,148.725 141.606,175.725 164.5,202.5C 177.283,217.895 189.95,233.395 202.5,249C 197.859,257.794 192.859,266.294 187.5,274.5C 184.312,271.841 181.812,268.508 180,264.5C 178.333,263.167 176.667,261.833 175,260.5C 148.249,219.329 121.249,178.329 94,137.5C 80.1672,116.852 67.0005,95.8516 54.5,74.5C 54.6236,73.8933 54.9569,73.56 55.5,73.5 Z"/></g>
<g><path style="opacity:0.996" fill="#fcde27" d="M 99.5,70.5 C 121.834,82.6646 143.834,95.3313 165.5,108.5C 165.832,140.004 165.498,171.338 164.5,202.5C 141.606,175.725 118.939,148.725 96.5,121.5C 96.8378,104.309 97.8378,87.3088 99.5,70.5 Z"/></g>
<g><path style="opacity:0.999" fill="#fcd72a" d="M 165.5,108.5 C 181.365,117.262 197.032,126.262 212.5,135.5C 212.169,245.57 212.502,355.57 213.5,465.5C 197.473,474.512 181.473,483.512 165.5,492.5C 165.832,433.331 165.499,374.331 164.5,315.5C 165.167,314.167 165.833,312.833 166.5,311.5C 170.419,305.33 174.086,298.997 177.5,292.5C 181.262,286.738 184.596,280.738 187.5,274.5C 192.859,266.294 197.859,257.794 202.5,249C 189.95,233.395 177.283,217.895 164.5,202.5C 165.498,171.338 165.832,140.004 165.5,108.5 Z"/></g>
<g><path style="opacity:0.999" fill="#fbd12c" d="M 212.5,135.5 C 228.33,144.247 243.996,153.247 259.5,162.5C 259.5,254.5 259.5,346.5 259.5,438.5C 249.638,443.375 240.305,449.042 231.5,455.5C 225.205,458.314 219.205,461.647 213.5,465.5C 212.502,355.57 212.169,245.57 212.5,135.5 Z"/></g>
<g><path style="opacity:0.994" fill="#fac432" d="M 166.5,311.5 C 165.833,312.833 165.167,314.167 164.5,315.5C 161.868,319.811 159.201,324.144 156.5,328.5C 153.902,326.696 151.735,324.362 150,321.5C 128.582,288.329 106.915,255.329 85,222.5C 84.5172,223.448 84.3505,224.448 84.5,225.5C 74.324,198.981 64.324,172.314 54.5,145.5C 55.397,144.402 56.2303,144.402 57,145.5C 92.9701,201.28 129.47,256.614 166.5,311.5 Z"/></g>
<g><path style="opacity:0.999" fill="#fbcb2f" d="M 259.5,162.5 C 277.5,172.833 295.5,183.167 313.5,193.5C 314.493,264.459 314.827,335.459 314.5,406.5C 296.395,417.392 278.062,428.058 259.5,438.5C 259.5,346.5 259.5,254.5 259.5,162.5 Z"/></g>
<g><path style="opacity:0.999" fill="#fac432" d="M 313.5,193.5 C 328.5,202.167 343.5,210.833 358.5,219.5C 358.415,220.995 359.081,221.995 360.5,222.5C 361.5,274.829 361.833,327.162 361.5,379.5C 350.798,385.848 340.131,392.181 329.5,398.5C 324.517,401.138 319.517,403.805 314.5,406.5C 314.827,335.459 314.493,264.459 313.5,193.5 Z"/></g>
<g><path style="opacity:0.988" fill="#fbcb2f" d="M 156.5,328.5 C 150.357,339.446 144.191,350.446 138,361.5C 137.241,363.063 136.074,364.063 134.5,364.5C 117.436,318.307 100.769,271.974 84.5,225.5C 84.3505,224.448 84.5172,223.448 85,222.5C 106.915,255.329 128.582,288.329 150,321.5C 151.735,324.362 153.902,326.696 156.5,328.5 Z"/></g>
<g><path style="opacity:0.997" fill="#fbbe34" d="M 358.5,219.5 C 375.833,229.5 393.167,239.5 410.5,249.5C 410.607,251.379 410.107,251.712 409,250.5C 408.169,284.336 408.336,318.002 409.5,351.5C 393.782,361.197 377.782,370.53 361.5,379.5C 361.833,327.162 361.5,274.829 360.5,222.5C 359.081,221.995 358.415,220.995 358.5,219.5 Z"/></g>
<g><path style="opacity:0.996" fill="#fbb937" d="M 410.5,249.5 C 424.189,257.535 437.855,265.535 451.5,273.5C 451.062,273.435 450.728,273.601 450.5,274C 451.16,291.598 451.827,309.098 452.5,326.5C 442,332.582 431.666,338.916 421.5,345.5C 417.527,347.487 413.527,349.487 409.5,351.5C 408.336,318.002 408.169,284.336 409,250.5C 410.107,251.712 410.607,251.379 410.5,249.5 Z"/></g>
<g><path style="opacity:0.988" fill="#fbb339" d="M 451.5,273.5 C 467.671,282.081 483.337,291.415 498.5,301.5C 498.376,302.107 498.043,302.44 497.5,302.5C 497.565,302.062 497.399,301.728 497,301.5C 482.355,310.237 467.522,318.571 452.5,326.5C 451.827,309.098 451.16,291.598 450.5,274C 450.728,273.601 451.062,273.435 451.5,273.5 Z"/></g>
<g><path style="opacity:0.998" fill="#fcb827" d="M 497.5,302.5 C 496.32,305.54 494.653,308.206 492.5,310.5C 372.729,400.426 253.062,490.593 133.5,581C 136.854,581.455 140.187,581.955 143.5,582.5C 143.823,607.575 143.49,632.575 142.5,657.5C 128.832,650.335 115.499,642.669 102.5,634.5C 102.189,633.522 101.522,632.855 100.5,632.5C 99.1759,615.603 99.1759,598.769 100.5,582C 104.619,581.857 108.619,581.19 112.5,580C 215.568,501.813 318.568,423.646 421.5,345.5C 431.666,338.916 442,332.582 452.5,326.5C 467.522,318.571 482.355,310.237 497,301.5C 497.399,301.728 497.565,302.062 497.5,302.5 Z"/></g>
<g><path style="opacity:0.997" fill="#fcb129" d="M 492.5,310.5 C 486.686,322.129 480.352,333.462 473.5,344.5C 368.355,422.586 263.689,501.419 159.5,581C 166.826,581.5 174.159,581.666 181.5,581.5C 185.298,582.483 189.298,582.817 193.5,582.5C 194.16,617.183 193.493,651.516 191.5,685.5C 174.67,676.922 158.337,667.589 142.5,657.5C 143.49,632.575 143.823,607.575 143.5,582.5C 140.187,581.955 136.854,581.455 133.5,581C 253.062,490.593 372.729,400.426 492.5,310.5 Z"/></g>
<g><path style="opacity:0.998" fill="#fcdd28" d="M 164.5,315.5 C 165.499,374.331 165.832,433.331 165.5,492.5C 150.096,501.892 134.43,510.892 118.5,519.5C 118.827,478.094 118.494,436.761 117.5,395.5C 123.433,385.3 129.1,374.967 134.5,364.5C 136.074,364.063 137.241,363.063 138,361.5C 144.191,350.446 150.357,339.446 156.5,328.5C 159.201,324.144 161.868,319.811 164.5,315.5 Z"/></g>
<g><path style="opacity:0.997" fill="#fcbe24" d="M 421.5,345.5 C 318.568,423.646 215.568,501.813 112.5,580C 108.619,581.19 104.619,581.857 100.5,582C 99.1759,598.769 99.1759,615.603 100.5,632.5C 101.522,632.855 102.189,633.522 102.5,634.5C 87.5005,626.669 72.8338,618.336 58.5,609.5C 57.5556,600.553 57.2222,591.553 57.5,582.5C 60.6085,582.736 63.6085,582.403 66.5,581.5C 74.1739,581.666 81.8406,581.5 89.5,581C 163.883,524.282 238.55,467.949 313.5,412C 319.09,407.719 324.423,403.219 329.5,398.5C 340.131,392.181 350.798,385.848 361.5,379.5C 377.782,370.53 393.782,361.197 409.5,351.5C 413.527,349.487 417.527,347.487 421.5,345.5 Z"/></g>
<g><path style="opacity:0.999" fill="#fcab2c" d="M 473.5,344.5 C 466.914,355.337 460.581,366.337 454.5,377.5C 453.504,377.586 452.671,377.252 452,376.5C 361.649,444.697 271.482,513.03 181.5,581.5C 174.159,581.666 166.826,581.5 159.5,581C 263.689,501.419 368.355,422.586 473.5,344.5 Z"/></g>
<g><path style="opacity:0.998" fill="#fba52e" d="M 454.5,377.5 C 449.5,386.167 444.5,394.833 439.5,403.5C 360.108,461.864 281.441,521.197 203.5,581.5C 196.167,581.5 188.833,581.5 181.5,581.5C 271.482,513.03 361.649,444.697 452,376.5C 452.671,377.252 453.504,377.586 454.5,377.5 Z"/></g>
<g><path style="opacity:0.995" fill="#fce126" d="M 117.5,395.5 C 118.494,436.761 118.827,478.094 118.5,519.5C 111.996,524.255 104.996,528.255 97.5,531.5C 98.1595,498.483 97.4929,465.816 95.5,433.5C 102.848,420.798 110.182,408.131 117.5,395.5 Z"/></g>
<g><path style="opacity:1" fill="#fcc422" d="M 329.5,398.5 C 324.423,403.219 319.09,407.719 313.5,412C 238.55,467.949 163.883,524.282 89.5,581C 81.8406,581.5 74.1739,581.666 66.5,581.5C 121.5,539.5 176.5,497.5 231.5,455.5C 240.305,449.042 249.638,443.375 259.5,438.5C 278.062,428.058 296.395,417.392 314.5,406.5C 319.517,403.805 324.517,401.138 329.5,398.5 Z"/></g>
<g><path style="opacity:0.998" fill="#fb9f30" d="M 439.5,403.5 C 432.914,414.337 426.581,425.337 420.5,436.5C 419.577,435.697 418.577,435.53 417.5,436C 353.599,484.747 289.599,533.247 225.5,581.5C 221.833,581.5 218.167,581.5 214.5,581.5C 210.833,581.5 207.167,581.5 203.5,581.5C 281.441,521.197 360.108,461.864 439.5,403.5 Z"/></g>
<g><path style="opacity:0.996" fill="#fce624" d="M 95.5,433.5 C 97.4929,465.816 98.1595,498.483 97.5,531.5C 68.8333,548.5 40.1667,565.5 11.5,582.5C 10.3789,580.911 10.5456,579.244 12,577.5C 39.6076,529.273 67.4409,481.273 95.5,433.5 Z"/></g>
<g><path style="opacity:0.997" fill="#fb9932" d="M 420.5,436.5 C 414.07,447.702 407.403,458.702 400.5,469.5C 350.513,505.741 300.846,543.074 251.5,581.5C 251.167,581.5 250.833,581.5 250.5,581.5C 242.167,581.5 233.833,581.5 225.5,581.5C 289.599,533.247 353.599,484.747 417.5,436C 418.577,435.53 419.577,435.697 420.5,436.5 Z"/></g>
<g><path style="opacity:1" fill="#fcc721" d="M 231.5,455.5 C 176.5,497.5 121.5,539.5 66.5,581.5C 63.6085,582.403 60.6085,582.736 57.5,582.5C 57.2222,591.553 57.5556,600.553 58.5,609.5C 42.6349,600.738 26.9682,591.738 11.5,582.5C 40.1667,565.5 68.8333,548.5 97.5,531.5C 104.996,528.255 111.996,524.255 118.5,519.5C 134.43,510.892 150.096,501.892 165.5,492.5C 181.473,483.512 197.473,474.512 213.5,465.5C 219.205,461.647 225.205,458.314 231.5,455.5 Z"/></g>
<g><path style="opacity:0.996" fill="#fb9235" d="M 400.5,469.5 C 395.336,479.833 389.669,489.833 383.5,499.5C 383.103,498.475 382.437,498.308 381.5,499C 345.315,526.364 309.315,553.864 273.5,581.5C 266.167,581.5 258.833,581.5 251.5,581.5C 300.846,543.074 350.513,505.741 400.5,469.5 Z"/></g>
<g><path style="opacity:0.993" fill="#fb8c37" d="M 383.5,499.5 C 377.861,509.483 372.195,519.483 366.5,529.5C 365.883,529.389 365.383,529.056 365,528.5C 341.855,546.308 318.688,563.975 295.5,581.5C 292.5,581.5 289.5,581.5 286.5,581.5C 282.167,581.5 277.833,581.5 273.5,581.5C 309.315,553.864 345.315,526.364 381.5,499C 382.437,498.308 383.103,498.475 383.5,499.5 Z"/></g>
<g><path style="opacity:0.987" fill="#fb8639" d="M 366.5,529.5 C 356.5,546.833 346.5,564.167 336.5,581.5C 322.833,581.5 309.167,581.5 295.5,581.5C 318.688,563.975 341.855,546.308 365,528.5C 365.383,529.056 365.883,529.389 366.5,529.5 Z"/></g>
<g><path style="opacity:0.998" fill="#fcab2c" d="M 181.5,581.5 C 188.833,581.5 196.167,581.5 203.5,581.5C 207.167,581.5 210.833,581.5 214.5,581.5C 221.648,582.492 228.981,582.825 236.5,582.5C 236.5,625.5 236.5,668.5 236.5,711.5C 221.002,703.588 206.002,694.921 191.5,685.5C 193.493,651.516 194.16,617.183 193.5,582.5C 189.298,582.817 185.298,582.483 181.5,581.5 Z"/></g>
<g><path style="opacity:0.998" fill="#fba52e" d="M 214.5,581.5 C 218.167,581.5 221.833,581.5 225.5,581.5C 233.833,581.5 242.167,581.5 250.5,581.5C 259.652,582.494 268.985,582.827 278.5,582.5C 279.162,633.511 278.495,684.178 276.5,734.5C 262.832,727.335 249.499,719.669 236.5,711.5C 236.5,668.5 236.5,625.5 236.5,582.5C 228.981,582.825 221.648,582.492 214.5,581.5 Z"/></g>
<g><path style="opacity:0.999" fill="#fb9f30" d="M 250.5,581.5 C 250.833,581.5 251.167,581.5 251.5,581.5C 258.833,581.5 266.167,581.5 273.5,581.5C 277.833,581.5 282.167,581.5 286.5,581.5C 298.322,582.495 310.322,582.828 322.5,582.5C 322.5,642.167 322.5,701.833 322.5,761.5C 307.131,752.485 291.798,743.485 276.5,734.5C 278.495,684.178 279.162,633.511 278.5,582.5C 268.985,582.827 259.652,582.494 250.5,581.5 Z"/></g>
<g><path style="opacity:0.996" fill="#fb9932" d="M 286.5,581.5 C 289.5,581.5 292.5,581.5 295.5,581.5C 309.167,581.5 322.833,581.5 336.5,581.5C 349.098,603.031 361.432,624.698 373.5,646.5C 372.833,694.167 372.167,741.833 371.5,789.5C 355.031,780.431 338.698,771.098 322.5,761.5C 322.5,701.833 322.5,642.167 322.5,582.5C 310.322,582.828 298.322,582.495 286.5,581.5 Z"/></g>
<g><path style="opacity:0.993" fill="#fb9235" d="M 373.5,646.5 C 387.909,669.641 401.576,693.308 414.5,717.5C 414.832,749.671 414.498,781.671 413.5,813.5C 399.166,806.002 385.166,798.002 371.5,789.5C 372.167,741.833 372.833,694.167 373.5,646.5 Z"/></g>
<g><path style="opacity:0.989" fill="#fb8d37" d="M 414.5,717.5 C 427.335,738.498 439.668,759.832 451.5,781.5C 450.503,798.659 450.17,815.992 450.5,833.5C 449.5,833.5 448.5,833.5 447.5,833.5C 435.83,827.334 424.496,820.668 413.5,813.5C 414.498,781.671 414.832,749.671 414.5,717.5 Z"/></g>
<g><path style="opacity:0.969" fill="#fb8839" d="M 451.5,781.5 C 467.192,807.708 482.526,834.208 497.5,861C 497.333,861.5 497.167,862 497,862.5C 480.19,853.185 463.69,843.519 447.5,833.5C 448.5,833.5 449.5,833.5 450.5,833.5C 450.17,815.992 450.503,798.659 451.5,781.5 Z"/></g>
</svg>
