<svg width="17" height="16" viewBox="0 0 17 16" fill="none" xmlns="http://www.w3.org/2000/svg">
<g id="Group 13">
<path id="Subtract" d="M1.5 2.9375C1.5 2.10907 2.17157 1.4375 3 1.4375V0.4375C1.61929 0.4375 0.5 1.55679 0.5 2.9375H1.5ZM1.5 5.26562V2.9375H0.5V5.26562H1.5ZM3 6.76562C2.17157 6.76562 1.5 6.09405 1.5 5.26562H0.5C0.5 6.64634 1.61929 7.76562 3 7.76562V6.76562ZM13.0625 6.76562H3V7.76562H13.0625V6.76562ZM14.5625 5.26562C14.5625 6.09405 13.8909 6.76562 13.0625 6.76562V7.76562C14.4432 7.76562 15.5625 6.64634 15.5625 5.26562H14.5625ZM14.5625 2.9375V5.26562H15.5625V2.9375H14.5625ZM13.0625 1.4375C13.8909 1.4375 14.5625 2.10907 14.5625 2.9375H15.5625C15.5625 1.55679 14.4432 0.4375 13.0625 0.4375V1.4375ZM3 1.4375H13.0625V0.4375H3V1.4375ZM4.71875 4.10156C4.71875 4.40791 4.47041 4.65625 4.16406 4.65625V5.65625C5.02269 5.65625 5.71875 4.96019 5.71875 4.10156H4.71875ZM4.16406 3.54688C4.47041 3.54688 4.71875 3.79522 4.71875 4.10156H5.71875C5.71875 3.24293 5.02269 2.54688 4.16406 2.54688V3.54688ZM3.60938 4.10156C3.60938 3.79522 3.85772 3.54688 4.16406 3.54688V2.54688C3.30543 2.54688 2.60938 3.24293 2.60938 4.10156H3.60938ZM4.16406 4.65625C3.85772 4.65625 3.60938 4.40791 3.60938 4.10156H2.60938C2.60938 4.96019 3.30543 5.65625 4.16406 5.65625V4.65625Z" fill="#01162B"/>
<path id="Subtract_2" d="M1.5 10.6719C1.5 9.84345 2.17157 9.17188 3 9.17188V8.17188C1.61929 8.17188 0.5 9.29116 0.5 10.6719H1.5ZM1.5 13V10.6719H0.5V13H1.5ZM3 14.5C2.17157 14.5 1.5 13.8284 1.5 13H0.5C0.5 14.3807 1.61929 15.5 3 15.5V14.5ZM13.0625 14.5H3V15.5H13.0625V14.5ZM14.5625 13C14.5625 13.8284 13.8909 14.5 13.0625 14.5V15.5C14.4432 15.5 15.5625 14.3807 15.5625 13H14.5625ZM14.5625 10.6719V13H15.5625V10.6719H14.5625ZM13.0625 9.17188C13.8909 9.17188 14.5625 9.84345 14.5625 10.6719H15.5625C15.5625 9.29116 14.4432 8.17188 13.0625 8.17188V9.17188ZM3 9.17188H13.0625V8.17188H3V9.17188ZM4.71875 11.8359C4.71875 12.1423 4.47041 12.3906 4.16406 12.3906V13.3906C5.02269 13.3906 5.71875 12.6946 5.71875 11.8359H4.71875ZM4.16406 11.2812C4.47041 11.2812 4.71875 11.5296 4.71875 11.8359H5.71875C5.71875 10.9773 5.02269 10.2812 4.16406 10.2812V11.2812ZM3.60938 11.8359C3.60938 11.5296 3.85772 11.2812 4.16406 11.2812V10.2812C3.30543 10.2812 2.60938 10.9773 2.60938 11.8359H3.60938ZM4.16406 12.3906C3.85772 12.3906 3.60938 12.1423 3.60938 11.8359H2.60938C2.60938 12.6946 3.30543 13.3906 4.16406 13.3906V12.3906Z" fill="#01162B"/>
<circle id="Ellipse 240" cx="11.7812" cy="5.15625" r="5.15625" fill="white"/>
</g>
</svg>
