<svg width="6" height="6" viewBox="0 0 6 6" fill="none" xmlns="http://www.w3.org/2000/svg">
<path id="Union" opacity="0.7" fill-rule="evenodd" clip-rule="evenodd" d="M3 0C2.72386 0 2.5 0.223858 2.5 0.5V2.50001H0.5C0.223858 2.50001 0 2.72387 0 3.00001C0 3.27615 0.223857 3.50001 0.5 3.50001H2.5V5.5C2.5 5.77614 2.72386 6 3 6C3.27614 6 3.5 5.77614 3.5 5.5V3.50001H5.5C5.77614 3.50001 6 3.27615 6 3.00001C6 2.72387 5.77614 2.50001 5.5 2.50001H3.5V0.5C3.5 0.223858 3.27614 0 3 0Z" fill="#01162B"/>
</svg>
